<svg width="1028" height="689" xmlns="http://www.w3.org/2000/svg" xmlns:xlink="http://www.w3.org/1999/xlink" overflow="hidden"><defs><clipPath id="clip0"><rect x="-23" y="-24" width="1028" height="689"/></clipPath></defs><g clip-path="url(#clip0)" transform="translate(23 24)"><text fill="#333399" font-family="SimSun,SimSun_MSFontService,sans-serif" font-weight="700" font-size="53" transform="translate(9.6 47)">二叉搜索树举例<tspan font-family="Times New Roman,Times New Roman_MSFontService,sans-serif" x="374.5" y="0">-</tspan>续<tspan fill="#3333CC" font-family="Wingdings,Wingdings_MSFontService,sans-serif" font-weight="400" font-size="22" x="0" y="59"></tspan><tspan fill="#000000" font-size="37" x="36" y="59">例：表示</tspan><tspan fill="#000000" font-family="Times New Roman,Times New Roman_MSFontService,sans-serif" font-size="37" x="186" y="59">S={1,3,5,7,9,11,13,15,17}</tspan><tspan fill="#000000" font-size="37" x="572.773" y="59">的一棵二叉搜索树</tspan><tspan fill="#000000" font-family="Times New Roman,Times New Roman_MSFontService,sans-serif" font-size="37" x="872.773" y="59">T</tspan><tspan fill="#000000" font-size="37" x="897.607" y="59">中，</tspan><tspan fill="#000000" font-size="37" x="36" y="103">设各元素的存取概率如下表</tspan><tspan fill="#000000" font-size="37" x="37.3333" y="480">平均路径长</tspan><tspan fill="#000000" font-family="Times New Roman,Times New Roman_MSFontService,sans-serif" font-size="37" x="224.833" y="480">=0.06</tspan><tspan fill="#000000" font-size="37" x="311.5" y="480">×</tspan><tspan fill="#000000" font-family="Times New Roman,Times New Roman_MSFontService,sans-serif" font-size="37" x="349" y="480">(1+2+2+3+3+3+3+4+4)+0.1</tspan><tspan fill="#000000" font-size="37" x="780.667" y="480">×</tspan><tspan fill="#000000" font-size="37" x="818.167" y="480">3+</tspan><tspan fill="#000000" font-family="Times New Roman,Times New Roman_MSFontService,sans-serif" font-size="37" x="205.333" y="533">0.04 </tspan><tspan fill="#000000" font-size="37" x="280" y="533">×</tspan><tspan fill="#000000" font-family="Times New Roman,Times New Roman_MSFontService,sans-serif" font-size="37" x="317.5" y="533">(4+4+3+3+4+4+3+3+3)</tspan><tspan fill="#000000" font-family="Times New Roman,Times New Roman_MSFontService,sans-serif" font-size="37" x="186.667" y="587">=3.04                    </tspan></text><path d="M143.167 174.5 143.167 301.5" stroke="#000000" stroke-width="1.33333" stroke-miterlimit="8" fill="none" fill-rule="evenodd"/><path d="M214.167 174.5 214.167 301.5" stroke="#000000" stroke-width="1.33333" stroke-miterlimit="8" fill="none" fill-rule="evenodd"/><path d="M285.333 174.5 285.333 301.5" stroke="#000000" stroke-width="1.33333" stroke-miterlimit="8" fill="none" fill-rule="evenodd"/><path d="M356.5 174.5 356.5 301.5" stroke="#000000" stroke-width="1.33333" stroke-miterlimit="8" fill="none" fill-rule="evenodd"/><path d="M427.5 174.5 427.5 301.5" stroke="#000000" stroke-width="1.33333" stroke-miterlimit="8" fill="none" fill-rule="evenodd"/><path d="M498.667 174.5 498.667 301.5" stroke="#000000" stroke-width="1.33333" stroke-miterlimit="8" fill="none" fill-rule="evenodd"/><path d="M569.833 174.5 569.833 301.5" stroke="#000000" stroke-width="1.33333" stroke-miterlimit="8" fill="none" fill-rule="evenodd"/><path d="M640.833 174.5 640.833 301.5" stroke="#000000" stroke-width="1.33333" stroke-miterlimit="8" fill="none" fill-rule="evenodd"/><path d="M70.5001 224 713.5 224" stroke="#000000" stroke-width="1.33333" stroke-miterlimit="8" fill="none" fill-rule="evenodd"/><path d="M72 174.5 72 301.5" stroke="#000000" stroke-width="3" stroke-miterlimit="8" fill="none" fill-rule="evenodd"/><path d="M712 174.5 712 301.5" stroke="#000000" stroke-width="3" stroke-miterlimit="8" fill="none" fill-rule="evenodd"/><path d="M70.5001 176 713.5 176" stroke="#000000" stroke-width="3" stroke-miterlimit="8" fill="none" fill-rule="evenodd"/><path d="M70.5001 300 713.5 300" stroke="#000000" stroke-width="3" stroke-miterlimit="8" fill="none" fill-rule="evenodd"/><text font-family="Tahoma,Tahoma_MSFontService,sans-serif" font-weight="400" font-size="27" transform="translate(100.333 208)">1<tspan x="71.0834" y="0">3</tspan><tspan x="142.167" y="0">5</tspan><tspan x="213.333" y="0">7</tspan><tspan x="284.417" y="0">9</tspan><tspan x="348.25" y="0">11</tspan><tspan x="419.417" y="0">13</tspan><tspan x="490.5" y="0">15</tspan><tspan x="561.583" y="0">17</tspan><tspan x="-18.5" y="48">0.06</tspan><tspan x="52.5834" y="48">0.06</tspan><tspan x="123.667" y="48">0.06</tspan><tspan x="194.833" y="48">0.06</tspan><tspan x="265.917" y="48">0.06</tspan><tspan x="337" y="48">0.06</tspan><tspan x="408.167" y="48">0.06</tspan><tspan x="479.25" y="48">0.06</tspan><tspan x="550.333" y="48">0.06</tspan></text><path d="M120 326.5 120 449.5" stroke="#000000" stroke-width="1.33333" stroke-miterlimit="8" fill="none" fill-rule="evenodd"/><path d="M192 326.5 192 449.5" stroke="#000000" stroke-width="1.33333" stroke-miterlimit="8" fill="none" fill-rule="evenodd"/><path d="M264 326.5 264 449.5" stroke="#000000" stroke-width="1.33333" stroke-miterlimit="8" fill="none" fill-rule="evenodd"/><path d="M344 326.5 344 449.5" stroke="#000000" stroke-width="1.33333" stroke-miterlimit="8" fill="none" fill-rule="evenodd"/><path d="M424 326.5 424 449.5" stroke="#000000" stroke-width="1.33333" stroke-miterlimit="8" fill="none" fill-rule="evenodd"/><path d="M504 326.5 504 449.5" stroke="#000000" stroke-width="1.33333" stroke-miterlimit="8" fill="none" fill-rule="evenodd"/><path d="M600 326.5 600 449.5" stroke="#000000" stroke-width="1.33333" stroke-miterlimit="8" fill="none" fill-rule="evenodd"/><path d="M696 326.5 696 449.5" stroke="#000000" stroke-width="1.33333" stroke-miterlimit="8" fill="none" fill-rule="evenodd"/><path d="M792 326.5 792 449.5" stroke="#000000" stroke-width="1.33333" stroke-miterlimit="8" fill="none" fill-rule="evenodd"/><path d="M46.5001 376 897.5 376" stroke="#000000" stroke-width="1.33333" stroke-miterlimit="8" fill="none" fill-rule="evenodd"/><path d="M48 326.5 48 449.5" stroke="#000000" stroke-width="3" stroke-miterlimit="8" fill="none" fill-rule="evenodd"/><path d="M896 326.5 896 449.5" stroke="#000000" stroke-width="3" stroke-miterlimit="8" fill="none" fill-rule="evenodd"/><path d="M46.5001 328 897.5 328" stroke="#000000" stroke-width="3" stroke-miterlimit="8" fill="none" fill-rule="evenodd"/><path d="M46.5001 448 897.5 448" stroke="#000000" stroke-width="3" stroke-miterlimit="8" fill="none" fill-rule="evenodd"/><text font-family="Tahoma,Tahoma_MSFontService,sans-serif" font-weight="400" font-size="24" transform="translate(60.25 357)">(-<tspan x="17.8333" y="0">,1)</tspan><tspan x="69.75" y="0">(1,3)</tspan><tspan x="141.75" y="0">(3,5)</tspan><tspan x="218.037" y="0">(5,7)</tspan><tspan x="298.63" y="0">(7,9)</tspan><tspan x="371.167" y="0">(9,11)</tspan><tspan x="452.583" y="0">(11,13)</tspan><tspan x="548.583" y="0">(13,15)</tspan><tspan x="644.583" y="0">(15,17)</tspan><tspan x="749.88" y="0">(17,+)</tspan><tspan x="6.91664" y="48">0.1</tspan><tspan x="72.3333" y="48">0.04</tspan><tspan x="144.333" y="48">0.04</tspan><tspan x="220.333" y="48">0.04</tspan><tspan x="300.333" y="48">0.04</tspan><tspan x="380.333" y="48">0.04</tspan><tspan x="468.333" y="48">0.04</tspan><tspan x="564.333" y="48">0.04</tspan><tspan x="660.333" y="48">0.04</tspan><tspan x="760.333" y="48">0.04</tspan></text></g></svg>